<?xml version="1.0" encoding="UTF-8"?>
<svg xmlns="http://www.w3.org/2000/svg" xmlns:xlink="http://www.w3.org/1999/xlink" viewBox="0 0 150 150" width="150px" height="150px">
<g id="surface28206811">
<path style=" stroke:none;fill-rule:nonzero;fill:rgb(0%,0%,0%);fill-opacity:1;" d="M 48 9 C 26.496094 9 9 26.496094 9 48 L 9 102 C 9 123.503906 26.496094 141 48 141 L 102 141 C 123.503906 141 141 123.503906 141 102 L 141 48 C 141 26.496094 123.503906 9 102 9 Z M 48 15 L 102 15 C 120.257812 15 135 29.742188 135 48 L 135 102 C 135 120.257812 120.257812 135 102 135 L 48 135 C 29.742188 135 15 120.257812 15 102 L 15 48 C 15 29.742188 29.742188 15 48 15 Z M 111 33 C 107.6875 33 105 35.6875 105 39 C 105 42.3125 107.6875 45 111 45 C 114.3125 45 117 42.3125 117 39 C 117 35.6875 114.3125 33 111 33 Z M 75 42 C 56.808594 42 42 56.808594 42 75 C 42 93.191406 56.808594 108 75 108 C 93.191406 108 108 93.191406 108 75 C 108 56.808594 93.191406 42 75 42 Z M 75 48 C 89.945312 48 102 60.054688 102 75 C 102 89.945312 89.945312 102 75 102 C 60.054688 102 48 89.945312 48 75 C 48 60.054688 60.054688 48 75 48 Z M 75 48 "/>
</g>
</svg>
